<svg width="401.30996093749997px" height="178.439990234375px" xmlns="http://www.w3.org/2000/svg" viewBox="49.34501953125002 -14.219995117187494 401.30996093749997 178.439990234375" style="background: rgba(0, 0, 0, 0);" preserveAspectRatio="xMidYMid"><defs><filter id="editing-extrude-glow"><feFlood flood-color="#343434" result="flood-1"></feFlood><feMorphology operator="erode" radius="1" in="SourceAlpha" result="erode"></feMorphology><feComposite operator="in" in="flood-1" in2="erode" result="comp1"></feComposite><feConvolveMatrix order="4,4" divisor="1" in="comp1" result="convolve" kernelMatrix="0 0 0 0 0 0 0 0 1 1 1 1 0 0 0 0"></feConvolveMatrix><feOffset dx="-4" dy="0" in="convolve" result="extrude"></feOffset><feComposite operator="in" in="flood-1" in2="extrude" result="comp-extrude"></feComposite><feFlood flood-color="#000000" result="flood-2"></feFlood><feComposite operator="in" in="flood-2" in2="SourceAlpha" result="comp2"></feComposite><feMorphology operator="dilate" radius="1" in="comp2" result="dilate"></feMorphology><feOffset dx="-6" dy="0" in="dilate" result="offset"></feOffset><feGaussianBlur in="offset" stdDeviation="5.8" result="blur"></feGaussianBlur><feComponentTransfer in="blur" result="shadow"><feFuncA type="linear" slope="0.8" intercept="-0.2"></feFuncA></feComponentTransfer><feMerge><feMergeNode in="shadow"></feMergeNode><feMergeNode in="comp-extrude"></feMergeNode><feMergeNode in="SourceGraphic"></feMergeNode></feMerge></filter></defs><g filter="url(#editing-extrude-glow)"><g transform="translate(109.81500196456909, 116.41500091552734)"><path d="M35.36-29.80L35.36-29.80Q38.51-29.30 41.13-27.22L41.13-27.22L41.13-27.22Q43.74-25.15 45.28-22.08L45.28-22.08L45.28-22.08Q46.81-19.01 46.81-15.52L46.81-15.52L46.81-15.52Q46.81-11.12 44.57-7.59L44.57-7.59L44.57-7.59Q42.33-4.07 38.06-2.03L38.06-2.03L38.06-2.03Q33.78 0 27.97 0L27.97 0L6.39 0L6.39-57.85L27.14-57.85L27.14-57.85Q33.03-57.85 37.18-55.90L37.18-55.90L37.18-55.90Q41.33-53.95 43.41-50.63L43.41-50.63L43.41-50.63Q45.48-47.31 45.48-43.16L45.48-43.16L45.48-43.16Q45.48-38.01 42.70-34.65L42.70-34.65L42.70-34.65Q39.92-31.29 35.36-29.80L35.36-29.80ZM13.94-51.88L13.94-32.70L26.64-32.70L26.64-32.70Q31.87-32.70 34.82-35.23L34.82-35.23L34.82-35.23Q37.77-37.77 37.77-42.25L37.77-42.25L37.77-42.25Q37.77-46.73 34.86-49.30L34.86-49.30L34.86-49.30Q31.96-51.88 26.48-51.88L26.48-51.88L13.94-51.88ZM27.31-5.98L27.31-5.98Q32.87-5.98 36.06-8.71L36.06-8.71L36.06-8.71Q39.26-11.45 39.26-16.27L39.26-16.27L39.26-16.27Q39.26-21.08 35.94-23.90L35.94-23.90L35.94-23.90Q32.62-26.73 27.06-26.73L27.06-26.73L13.94-26.73L13.94-5.98L27.31-5.98ZM51.88-45.48L60.34-45.48L74.45-8.80L88.64-45.48L96.45-45.48L69.06 21.41L61.17 21.41L70.22-0.50L51.88-45.48ZM104.00-61.42L111.55-61.42L111.55 0L104.00 0L104.00-61.42ZM157.20-45.48L164.75-45.48L164.75 0L157.20 0L157.20-6.72L157.20-6.72Q155.04-3.24 151.18-1.29L151.18-1.29L151.18-1.29Q147.33 0.66 142.68 0.66L142.68 0.66L142.68 0.66Q137.37 0.66 133.13-1.54L133.13-1.54L133.13-1.54Q128.90-3.74 126.45-8.13L126.45-8.13L126.45-8.13Q124.00-12.53 124.00-18.84L124.00-18.84L124.00-45.48L131.47-45.48L131.47-19.84L131.47-19.84Q131.47-13.11 134.88-9.50L134.88-9.50L134.88-9.50Q138.28-5.89 144.17-5.89L144.17-5.89L144.17-5.89Q150.23-5.89 153.72-9.63L153.72-9.63L153.72-9.63Q157.20-13.36 157.20-20.50L157.20-20.50L157.20-45.48ZM199.70-46.31L199.70-46.31Q208.00-46.31 213.14-41.29L213.14-41.29L213.14-41.29Q218.29-36.27 218.29-26.81L218.29-26.81L218.29 0L210.82 0L210.82-25.73L210.82-25.73Q210.82-32.54 207.42-36.15L207.42-36.15L207.42-36.15Q204.01-39.76 198.12-39.76L198.12-39.76L198.12-39.76Q192.15-39.76 188.62-36.02L188.62-36.02L188.62-36.02Q185.09-32.29 185.09-25.15L185.09-25.15L185.09 0L177.54 0L177.54-45.48L185.09-45.48L185.09-39.01L185.09-39.01Q187.33-42.50 191.19-44.41L191.19-44.41L191.19-44.41Q195.05-46.31 199.70-46.31L199.70-46.31ZM227.84-22.91L227.84-22.91Q227.84-29.88 230.66-35.15L230.66-35.15L230.66-35.15Q233.48-40.42 238.42-43.33L238.42-43.33L238.42-43.33Q243.36-46.23 249.50-46.23L249.50-46.23L249.50-46.23Q254.81-46.23 259.38-43.78L259.38-43.78L259.38-43.78Q263.94-41.33 266.35-37.35L266.35-37.35L266.35-61.42L273.98-61.42L273.98 0L266.35 0L266.35-8.55L266.35-8.55Q264.11-4.48 259.71-1.87L259.71-1.87L259.71-1.87Q255.31 0.75 249.42 0.75L249.42 0.75L249.42 0.75Q243.36 0.75 238.42-2.24L238.42-2.24L238.42-2.24Q233.48-5.23 230.66-10.62L230.66-10.62L230.66-10.62Q227.84-16.02 227.84-22.91L227.84-22.91ZM266.35-22.83L266.35-22.83Q266.35-27.97 264.27-31.79L264.27-31.79L264.27-31.79Q262.20-35.61 258.67-37.64L258.67-37.64L258.67-37.64Q255.14-39.67 250.91-39.67L250.91-39.67L250.91-39.67Q246.68-39.67 243.19-37.68L243.19-37.68L243.19-37.68Q239.70-35.69 237.63-31.87L237.63-31.87L237.63-31.87Q235.55-28.05 235.55-22.91L235.55-22.91L235.55-22.91Q235.55-17.68 237.63-13.82L237.63-13.82L237.63-13.82Q239.70-9.96 243.19-7.93L243.19-7.93L243.19-7.93Q246.68-5.89 250.91-5.89L250.91-5.89L250.91-5.89Q255.14-5.89 258.67-7.93L258.67-7.93L258.67-7.93Q262.20-9.96 264.27-13.82L264.27-13.82L264.27-13.82Q266.35-17.68 266.35-22.83L266.35-22.83Z" fill="#ffffff"></path></g></g><style>text {
  font-size: 64px;
  font-family: Arial Black;
  dominant-baseline: central;
  text-anchor: middle;
}</style></svg>