<svg width="253.325px" height="178.439990234375px" xmlns="http://www.w3.org/2000/svg" viewBox="123.3375 -14.219995117187494 253.325 178.439990234375" style="background: rgba(0, 0, 0, 0);" preserveAspectRatio="xMidYMid"><defs><filter id="editing-extrude-glow"><feFlood flood-color="#343434" result="flood-1"></feFlood><feMorphology operator="erode" radius="1" in="SourceAlpha" result="erode"></feMorphology><feComposite operator="in" in="flood-1" in2="erode" result="comp1"></feComposite><feConvolveMatrix order="4,4" divisor="1" in="comp1" result="convolve" kernelMatrix="0 0 0 0 0 0 0 0 1 1 1 1 0 0 0 0"></feConvolveMatrix><feOffset dx="-4" dy="0" in="convolve" result="extrude"></feOffset><feComposite operator="in" in="flood-1" in2="extrude" result="comp-extrude"></feComposite><feFlood flood-color="#000000" result="flood-2"></feFlood><feComposite operator="in" in="flood-2" in2="SourceAlpha" result="comp2"></feComposite><feMorphology operator="dilate" radius="1" in="comp2" result="dilate"></feMorphology><feOffset dx="-6" dy="0" in="dilate" result="offset"></feOffset><feGaussianBlur in="offset" stdDeviation="5.8" result="blur"></feGaussianBlur><feComponentTransfer in="blur" result="shadow"><feFuncA type="linear" slope="0.8" intercept="-0.2"></feFuncA></feComponentTransfer><feMerge><feMergeNode in="shadow"></feMergeNode><feMergeNode in="comp-extrude"></feMergeNode><feMergeNode in="SourceGraphic"></feMergeNode></feMerge></filter></defs><g filter="url(#editing-extrude-glow)"><g transform="translate(165.67000555992126, 106.08499908447266)"><path d="M3.57-28.97L3.57-28.97Q3.57-37.43 7.39-44.20L7.39-44.20L7.39-44.20Q11.21-50.96 17.80-54.78L17.80-54.78L17.80-54.78Q24.40-58.60 32.45-58.60L32.45-58.60L32.45-58.60Q41.91-58.60 48.97-54.03L48.97-54.03L48.97-54.03Q56.03-49.47 59.26-41.09L59.26-41.09L50.22-41.09L50.22-41.09Q47.81-46.15 43.28-48.93L43.28-48.93L43.28-48.93Q38.76-51.71 32.45-51.71L32.45-51.71L32.45-51.71Q26.39-51.71 21.58-48.93L21.58-48.93L21.58-48.93Q16.77-46.15 14.03-40.96L14.03-40.96L14.03-40.96Q11.29-35.77 11.29-28.97L11.29-28.97L11.29-28.97Q11.29-22.16 14.03-17.02L14.03-17.02L14.03-17.02Q16.77-11.87 21.58-9.09L21.58-9.09L21.58-9.09Q26.39-6.31 32.45-6.31L32.45-6.31L32.45-6.31Q38.76-6.31 43.28-9.05L43.28-9.05L43.28-9.05Q47.81-11.79 50.22-16.85L50.22-16.85L59.26-16.85L59.26-16.85Q56.03-8.55 48.97-4.03L48.97-4.03L48.97-4.03Q41.91 0.50 32.45 0.50L32.45 0.50L32.45 0.50Q24.40 0.50 17.80-3.28L17.80-3.28L17.80-3.28Q11.21-7.06 7.39-13.78L7.39-13.78L7.39-13.78Q3.57-20.50 3.57-28.97L3.57-28.97ZM67.65-22.91L67.65-22.91Q67.65-29.88 70.47-35.15L70.47-35.15L70.47-35.15Q73.29-40.42 78.23-43.33L78.23-43.33L78.23-43.33Q83.17-46.23 89.23-46.23L89.23-46.23L89.23-46.23Q95.20-46.23 99.60-43.66L99.60-43.66L99.60-43.66Q104.00-41.09 106.16-37.18L106.16-37.18L106.16-45.48L113.79-45.48L113.79 0L106.16 0L106.16-8.47L106.16-8.47Q103.92-4.48 99.48-1.87L99.48-1.87L99.48-1.87Q95.04 0.75 89.14 0.75L89.14 0.75L89.14 0.75Q83.08 0.75 78.19-2.24L78.19-2.24L78.19-2.24Q73.29-5.23 70.47-10.62L70.47-10.62L70.47-10.62Q67.65-16.02 67.65-22.91L67.65-22.91ZM106.16-22.83L106.16-22.83Q106.16-27.97 104.08-31.79L104.08-31.79L104.08-31.79Q102.01-35.61 98.48-37.64L98.48-37.64L98.48-37.64Q94.95-39.67 90.72-39.67L90.72-39.67L90.72-39.67Q86.49-39.67 83-37.68L83-37.68L83-37.68Q79.51-35.69 77.44-31.87L77.44-31.87L77.44-31.87Q75.36-28.05 75.36-22.91L75.36-22.91L75.36-22.91Q75.36-17.68 77.44-13.82L77.44-13.82L77.44-13.82Q79.51-9.96 83-7.93L83-7.93L83-7.93Q86.49-5.89 90.72-5.89L90.72-5.89L90.72-5.89Q94.95-5.89 98.48-7.93L98.48-7.93L98.48-7.93Q102.01-9.96 104.08-13.82L104.08-13.82L104.08-13.82Q106.16-17.68 106.16-22.83L106.16-22.83ZM134.13-36.85L134.13-36.85Q136.12-41.33 139.81-43.82L139.81-43.82L139.81-43.82Q143.51-46.31 148.82-46.31L148.82-46.31L148.82-38.51L146.83-38.51L146.83-38.51Q134.13-38.51 134.13-24.73L134.13-24.73L134.13 0L126.58 0L126.58-45.48L134.13-45.48L134.13-36.85ZM157.53-61.42L165.09-61.42L165.09 0L157.53 0L157.53-61.42Z" fill="#ffffff"></path></g></g><style>text {
  font-size: 64px;
  font-family: Arial Black;
  dominant-baseline: central;
  text-anchor: middle;
}</style></svg>