<svg width="668.2525390625px" height="178.439990234375px" xmlns="http://www.w3.org/2000/svg" viewBox="-84.12626953124999 -14.219995117187494 668.2525390625 178.439990234375" style="background: rgba(0, 0, 0, 0);" preserveAspectRatio="xMidYMid"><defs><filter id="editing-extrude-glow"><feFlood flood-color="#343434" result="flood-1"></feFlood><feMorphology operator="erode" radius="1" in="SourceAlpha" result="erode"></feMorphology><feComposite operator="in" in="flood-1" in2="erode" result="comp1"></feComposite><feConvolveMatrix order="4,4" divisor="1" in="comp1" result="convolve" kernelMatrix="0 0 0 0 0 0 0 0 1 1 1 1 0 0 0 0"></feConvolveMatrix><feOffset dx="-4" dy="0" in="convolve" result="extrude"></feOffset><feComposite operator="in" in="flood-1" in2="extrude" result="comp-extrude"></feComposite><feFlood flood-color="#000000" result="flood-2"></feFlood><feComposite operator="in" in="flood-2" in2="SourceAlpha" result="comp2"></feComposite><feMorphology operator="dilate" radius="1" in="comp2" result="dilate"></feMorphology><feOffset dx="-6" dy="0" in="dilate" result="offset"></feOffset><feGaussianBlur in="offset" stdDeviation="5.8" result="blur"></feGaussianBlur><feComponentTransfer in="blur" result="shadow"><feFuncA type="linear" slope="0.8" intercept="-0.2"></feFuncA></feComponentTransfer><feMerge><feMergeNode in="shadow"></feMergeNode><feMergeNode in="comp-extrude"></feMergeNode><feMergeNode in="SourceGraphic"></feMergeNode></feMerge></filter></defs><g filter="url(#editing-extrude-glow)"><g transform="translate(13.07500433921814, 116.41500091552734)"><path d="M3.57-28.97L3.57-28.97Q3.57-37.43 7.39-44.20L7.39-44.20L7.39-44.20Q11.21-50.96 17.80-54.78L17.80-54.78L17.80-54.78Q24.40-58.60 32.45-58.60L32.45-58.60L32.45-58.60Q41.91-58.60 48.97-54.03L48.97-54.03L48.97-54.03Q56.03-49.47 59.26-41.09L59.26-41.09L50.22-41.09L50.22-41.09Q47.81-46.15 43.28-48.93L43.28-48.93L43.28-48.93Q38.76-51.71 32.45-51.71L32.45-51.71L32.45-51.71Q26.39-51.71 21.58-48.93L21.58-48.93L21.58-48.93Q16.77-46.15 14.03-40.96L14.03-40.96L14.03-40.96Q11.29-35.77 11.29-28.97L11.29-28.97L11.29-28.97Q11.29-22.16 14.03-17.02L14.03-17.02L14.03-17.02Q16.77-11.87 21.58-9.09L21.58-9.09L21.58-9.09Q26.39-6.31 32.45-6.31L32.45-6.31L32.45-6.31Q38.76-6.31 43.28-9.05L43.28-9.05L43.28-9.05Q47.81-11.79 50.22-16.85L50.22-16.85L59.26-16.85L59.26-16.85Q56.03-8.55 48.97-4.03L48.97-4.03L48.97-4.03Q41.91 0.50 32.45 0.50L32.45 0.50L32.45 0.50Q24.40 0.50 17.80-3.28L17.80-3.28L17.80-3.28Q11.21-7.06 7.39-13.78L7.39-13.78L7.39-13.78Q3.57-20.50 3.57-28.97L3.57-28.97ZM67.65-22.91L67.65-22.91Q67.65-29.88 70.47-35.15L70.47-35.15L70.47-35.15Q73.29-40.42 78.23-43.33L78.23-43.33L78.23-43.33Q83.17-46.23 89.23-46.23L89.23-46.23L89.23-46.23Q95.20-46.23 99.60-43.66L99.60-43.66L99.60-43.66Q104.00-41.09 106.16-37.18L106.16-37.18L106.16-45.48L113.79-45.48L113.79 0L106.16 0L106.16-8.47L106.16-8.47Q103.92-4.48 99.48-1.87L99.48-1.87L99.48-1.87Q95.04 0.75 89.14 0.75L89.14 0.75L89.14 0.75Q83.08 0.75 78.19-2.24L78.19-2.24L78.19-2.24Q73.29-5.23 70.47-10.62L70.47-10.62L70.47-10.62Q67.65-16.02 67.65-22.91L67.65-22.91ZM106.16-22.83L106.16-22.83Q106.16-27.97 104.08-31.79L104.08-31.79L104.08-31.79Q102.01-35.61 98.48-37.64L98.48-37.64L98.48-37.64Q94.95-39.67 90.72-39.67L90.72-39.67L90.72-39.67Q86.49-39.67 83-37.68L83-37.68L83-37.68Q79.51-35.69 77.44-31.87L77.44-31.87L77.44-31.87Q75.36-28.05 75.36-22.91L75.36-22.91L75.36-22.91Q75.36-17.68 77.44-13.82L77.44-13.82L77.44-13.82Q79.51-9.96 83-7.93L83-7.93L83-7.93Q86.49-5.89 90.72-5.89L90.72-5.89L90.72-5.89Q94.95-5.89 98.48-7.93L98.48-7.93L98.48-7.93Q102.01-9.96 104.08-13.82L104.08-13.82L104.08-13.82Q106.16-17.68 106.16-22.83L106.16-22.83ZM134.13-36.85L134.13-36.85Q136.12-41.33 139.81-43.82L139.81-43.82L139.81-43.82Q143.51-46.31 148.82-46.31L148.82-46.31L148.82-38.51L146.83-38.51L146.83-38.51Q134.13-38.51 134.13-24.73L134.13-24.73L134.13 0L126.58 0L126.58-45.48L134.13-45.48L134.13-36.85ZM157.53-61.42L165.09-61.42L165.09 0L157.53 0L157.53-61.42ZM231.65-29.80L231.65-29.80Q234.81-29.30 237.42-27.22L237.42-27.22L237.42-27.22Q240.04-25.15 241.57-22.08L241.57-22.08L241.57-22.08Q243.11-19.01 243.11-15.52L243.11-15.52L243.11-15.52Q243.11-11.12 240.87-7.59L240.87-7.59L240.87-7.59Q238.63-4.07 234.35-2.03L234.35-2.03L234.35-2.03Q230.08 0 224.27 0L224.27 0L202.69 0L202.69-57.85L223.44-57.85L223.44-57.85Q229.33-57.85 233.48-55.90L233.48-55.90L233.48-55.90Q237.63-53.95 239.70-50.63L239.70-50.63L239.70-50.63Q241.78-47.31 241.78-43.16L241.78-43.16L241.78-43.16Q241.78-38.01 239.00-34.65L239.00-34.65L239.00-34.65Q236.22-31.29 231.65-29.80L231.65-29.80ZM210.24-51.88L210.24-32.70L222.94-32.70L222.94-32.70Q228.17-32.70 231.11-35.23L231.11-35.23L231.11-35.23Q234.06-37.77 234.06-42.25L234.06-42.25L234.06-42.25Q234.06-46.73 231.16-49.30L231.16-49.30L231.16-49.30Q228.25-51.88 222.77-51.88L222.77-51.88L210.24-51.88ZM223.60-5.98L223.60-5.98Q229.16-5.98 232.36-8.71L232.36-8.71L232.36-8.71Q235.55-11.45 235.55-16.27L235.55-16.27L235.55-16.27Q235.55-21.08 232.23-23.90L232.23-23.90L232.23-23.90Q228.91-26.73 223.35-26.73L223.35-26.73L210.24-26.73L210.24-5.98L223.60-5.98ZM248.17-45.48L256.64-45.48L270.75-8.80L284.94-45.48L292.74-45.48L265.35 21.41L257.47 21.41L266.51-0.50L248.17-45.48ZM300.29-61.42L307.85-61.42L307.85 0L300.29 0L300.29-61.42ZM353.50-45.48L361.05-45.48L361.05 0L353.50 0L353.50-6.72L353.50-6.72Q351.34-3.24 347.48-1.29L347.48-1.29L347.48-1.29Q343.62 0.66 338.97 0.66L338.97 0.66L338.97 0.66Q333.66 0.66 329.43-1.54L329.43-1.54L329.43-1.54Q325.19-3.74 322.75-8.13L322.75-8.13L322.75-8.13Q320.30-12.53 320.30-18.84L320.30-18.84L320.30-45.48L327.77-45.48L327.77-19.84L327.77-19.84Q327.77-13.11 331.17-9.50L331.17-9.50L331.17-9.50Q334.57-5.89 340.47-5.89L340.47-5.89L340.47-5.89Q346.53-5.89 350.01-9.63L350.01-9.63L350.01-9.63Q353.50-13.36 353.50-20.50L353.50-20.50L353.50-45.48ZM395.99-46.31L395.99-46.31Q404.29-46.31 409.44-41.29L409.44-41.29L409.44-41.29Q414.59-36.27 414.59-26.81L414.59-26.81L414.59 0L407.12 0L407.12-25.73L407.12-25.73Q407.12-32.54 403.71-36.15L403.71-36.15L403.71-36.15Q400.31-39.76 394.42-39.76L394.42-39.76L394.42-39.76Q388.44-39.76 384.91-36.02L384.91-36.02L384.91-36.02Q381.39-32.29 381.39-25.15L381.39-25.15L381.39 0L373.83 0L373.83-45.48L381.39-45.48L381.39-39.01L381.39-39.01Q383.63-42.50 387.49-44.41L387.49-44.41L387.49-44.41Q391.35-46.31 395.99-46.31L395.99-46.31ZM424.13-22.91L424.13-22.91Q424.13-29.88 426.95-35.15L426.95-35.15L426.95-35.15Q429.77-40.42 434.71-43.33L434.71-43.33L434.71-43.33Q439.65-46.23 445.79-46.23L445.79-46.23L445.79-46.23Q451.11-46.23 455.67-43.78L455.67-43.78L455.67-43.78Q460.24-41.33 462.64-37.35L462.64-37.35L462.64-61.42L470.28-61.42L470.28 0L462.64 0L462.64-8.55L462.64-8.55Q460.40-4.48 456.00-1.87L456.00-1.87L456.00-1.87Q451.60 0.75 445.71 0.75L445.71 0.75L445.71 0.75Q439.65 0.75 434.71-2.24L434.71-2.24L434.71-2.24Q429.77-5.23 426.95-10.62L426.95-10.62L426.95-10.62Q424.13-16.02 424.13-22.91L424.13-22.91ZM462.64-22.83L462.64-22.83Q462.64-27.97 460.57-31.79L460.57-31.79L460.57-31.79Q458.49-35.61 454.96-37.64L454.96-37.64L454.96-37.64Q451.44-39.67 447.20-39.67L447.20-39.67L447.20-39.67Q442.97-39.67 439.49-37.68L439.49-37.68L439.49-37.68Q436.00-35.69 433.92-31.87L433.92-31.87L433.92-31.87Q431.85-28.05 431.85-22.91L431.85-22.91L431.85-22.91Q431.85-17.68 433.92-13.82L433.92-13.82L433.92-13.82Q436.00-9.96 439.49-7.93L439.49-7.93L439.49-7.93Q442.97-5.89 447.20-5.89L447.20-5.89L447.20-5.89Q451.44-5.89 454.96-7.93L454.96-7.93L454.96-7.93Q458.49-9.96 460.57-13.82L460.57-13.82L460.57-13.82Q462.64-17.68 462.64-22.83L462.64-22.83Z" fill="#ffffff"></path></g></g><style>text {
  font-size: 64px;
  font-family: Arial Black;
  dominant-baseline: central;
  text-anchor: middle;
}</style></svg>